<?xml version="1.0" encoding="UTF-8"?>
<svg id="Layer_1" data-name="Layer 1" xmlns="http://www.w3.org/2000/svg" viewBox="0 0 489.35 335.5">
  <defs>
    <style>
      .cls-1 {
        fill: #b6e4fa;
      }

      .cls-1, .cls-2, .cls-3, .cls-4 {
        stroke-width: 0px;
      }

      .cls-2 {
        fill: #1a1b41;
      }

      .cls-3 {
        fill: #3993dd;
      }

      .cls-4 {
        fill: #fff;
      }
    </style>
  </defs>
  <g>
    <path class="cls-1" d="M231.71,102.09c-11-.85-21.65,3.2-30.54,8.45-8.75,5.17-4.87,18.59,5.29,18.28.37,3.96,1.13,8.54,2.59,13.25,3.95,12.68,13.72,28.72,37.82,33.12,16.89,3.08,29.08,4.03,37.7,4.03,5.28,0,9.21-.36,12.05-.8,3.13,9.39,19.76,9.39,19.76,9.39.15-.67-4.16-33.27-13.63-55.6-7.26-17.13-30.5-26.98-71.04-30.12ZM248.6,156.01l-.1,2.74c-12.7-2.59-20.75-9.59-24.59-21.38-.12-.37-.23-.73-.34-1.1-1.44-4.91,1-10.14,5.7-12.16,7.43-3.2,15.43-3.37,26.44,3.35-14.62,12.81-7.11,28.56-7.11,28.56Z"/>
    <path class="cls-3" d="M484.1,219.14c-6.6-6.42-16.89-17.09-21.83-24.85l-7.78-12.22c-14.2-35.81-35.32-80.2-36.22-82.08-.03-.06-.06-.12-.1-.18l-7.52-12.42c-.15-.25-.36-.47-.6-.64l-1.07-.75c-10.18-7.07-32.46-10.67-42.66-11.99l-1.07-1.92c5.42-.85,10.38-3.72,13.83-8.04.43-.54.6-1.26.41-1.92-.31-1.08-1.37-1.7-2.42-1.5-4.88.92-15.38-3.91-21.24-7.38-4.01-2.37-22.65-20.05-29.49-26.66-.21-.2-.45-.35-.72-.45l-7.24-2.74c-2.51-.95-10.38-2.88-25.35-6.2,2.22-3.41,3.85-7.22,4.75-11.18.12-.53.07-1.09-.2-1.56-.52-.92-1.59-1.28-2.52-.96-11.56,3.95-22.29,5.37-27.65,5.87-7.26.67-14.33.96-21.82,1.26-12.42.5-25.27,1.01-41.14,3.34-19.94,2.93-37.99,13.43-50.41,29.3l-22.27,28.46c-5.51-.13-15.53.41-27.26,4.63-.53.19-.95.58-1.19,1.08-.24.51-.27,1.08-.08,1.61l4.18,11.61c.24.68.82,1.19,1.52,1.34l3.64.81-71.39,38.18c-.36.19-.65.48-.85.84l-.88,1.6c-3.21,5.81-6.4,11.23-9.5,16.11-.26.21-.47.49-.61.82l-.16.38c-14.92,23.17-23.35,27.09-23.42,27.12-1.08.42-1.62,1.64-1.2,2.72.22.56,6,6.28,9.17,7.25l-9.15,21.97c-.22.52-.22,1.1,0,1.62.22.52.63.93,1.15,1.14l.3.12c3.61,1.47,7.62,1.76,11.39.88l-1.22,22.86c-.03.58.18,1.14.57,1.56.4.42.95.66,1.53.66,1.71,0,2.87.09,4.95-.52,1.84,3.13,7.95,11.06,16.01,19.77,3.59,3.87,8.09,6.42,8.09,6.42l2.34-2.09,8.91,8.03,7.87-6.79c10.27,2.64,16.27,3.73,29.34,2.16l6.32,7.08,1.16-.8c3.79-2.62,7.38-5.52,10.75-8.64,5.37,0,86.5.02,106.41.03,3.35,0,6.69-.17,10.02-.52,19.09-1.98,47.22-3.53,59.26-7.03,2.43-.71,6.7-1.85,8.76-6.94v33.47c0,1.17.96,2.11,2.13,2.11,2.43,0,4.87-.47,7.16-1.36,23.54,27.47,57.38,37.74,75.61,41.42,2.03.41,4.09.69,6.15.82.82,1.94,2.45,5.49,3.84,6.47.37.26.79.39,1.22.39s.89-.14,1.26-.42c.17-.12,16.53-12.33,16.94-12.64,36.17-26.74,55.9-47.72,62.09-66.03,4.12-12.18,1.85-22.07-.89-29.04l8.22-.33c.86-.03,1.7-.43,2.18-1.15.74-1.11.56-2.51-.34-3.38ZM7.34,181.77s0,0,.01,0h0s-.01,0-.02,0ZM459.26,247.74c-2.18,6.44-7.06,13.85-14.53,22.07l-1.48-7.55c-.18-.94-.97-1.63-1.93-1.7-.95-.06-1.83.52-2.13,1.42-.38,1.12-9.71,27.57-45.15,38.33-.75.23-1.31.85-1.46,1.62-.15.77.14,1.55.75,2.04.17.14,2.91,2.29,6.56,3.51-3.64,1.45-8.25,1.73-13.17.74-16.97-3.43-48.46-13.04-68.71-38.86-1.89-2.41-2.92-5.43-2.92-8.52v-36.7c0-.76-.41-1.46-1.07-1.83-.66-.37-1.47-.37-2.12.02,0,0-8.73,8.57-32.57,16.71-31.48,10.74-152.07,8.03-160.76,8.04l-3.45-3.48c-3.31,4.66-9.6,6.82-14.62,9.56l-3.23-3.61c-1.24.12-2.52.2-3.87.23-12.35.3-22.58-1.36-30.62-3.63l-5.08,4.53s-6.44-3.94-10.66-7.61c-12.93-11.22-13.44-13.6-13.68-15.79l-.19-8.32c2.58,1.22,5.44,2.1,8.62,2.53v3.03c7.19.62,25.08-4.03,37.51-14.42,15.78,17.72,38.21,27.76,60.16,27.76,1.71,0,3.44-.06,5.16-.18,6.76-.47,13.84-1.96,17.61-3.72,16.73-7.78,4.79-19.08,4.79-19.08-7.07,4.53-15.64,7.79-24.82,8.03-11.83.32-20.82-4.95-20.82-4.95l-.28,4.82c-23.74-9.02-40.51-30.42-40.51-30.42-15.38,15.57-30.93,19.24-30.93,19.24v-1.52c-1.81.38-3.47.56-4.9.52-4.25-.12-8.29-2.53-11.93-6.24l-.13-6-4.81.82c5.31-12.3,20.69-47.76,24.87-55.64l74.93-40.07c.26-.14.49-.33.67-.56l38.71-49.47c9.86-12.6,24-20.81,39.82-23.13,21.18-3.11,39.83-5,55.42-5.63,19.28,5.21,50.73,14.71,54.9,15.97l23.79,21.83,14.44,26.03c.33.6.94,1,1.62,1.07l3.19.34c7.64.81,29.09,3.94,37.94,8.83l5.3,8.71c1.66,3.49,27.77,58.56,40.61,93.82,2.26,6.2,5.34,11.55,8.33,16.73,6.17,10.7,10.62,18.42,6.81,29.71Z"/>
    <path class="cls-1" d="M298.83,90.38c-38.26-21.9-70.45-7.37-71.86-6.91.3-.09,50.52,7.95,81.3,32.52l-9.44-25.61Z"/>
    <path class="cls-1" d="M55.28,148.14s-5.07,30.77,21.29,37.77c1.31.52,2.68.82,4.12.85,44.08,6.77,53.4-20.93,52.6-35.48-.8-14.55-78.51-25.29-78.02-3.14Z"/>
  </g>
  <g>
    <path class="cls-1" d="M7.34,181.77s0,0,.01,0h0s-.01,0-.02,0ZM459.26,247.74c-2.18,6.44-7.06,13.85-14.53,22.07l-1.48-7.55c-.18-.94-.97-1.63-1.93-1.7-.95-.06-1.83.52-2.13,1.42-.38,1.12-9.71,27.57-45.15,38.33-.75.23-1.31.85-1.46,1.62-.15.77.14,1.55.75,2.04.17.14,2.91,2.29,6.56,3.51-3.64,1.45-8.25,1.73-13.17.74-16.97-3.43-48.46-13.04-68.71-38.86-1.89-2.41-2.92-5.43-2.92-8.52v-36.7c0-.76-.41-1.46-1.07-1.83-.66-.37-1.47-.37-2.12.02,0,0-8.73,8.57-32.57,16.71-31.48,10.74-152.07,8.03-160.76,8.04l-3.45-3.48c-3.31,4.66-9.6,6.82-14.62,9.56l-3.23-3.61c-1.24.12-2.52.2-3.87.23-12.35.3-22.58-1.36-30.62-3.63l-5.08,4.53s-6.44-3.94-10.66-7.61c-12.93-11.22-13.44-13.6-13.68-15.79l-.19-8.32c2.58,1.22,5.44,2.1,8.62,2.53v3.03c7.19.62,25.08-4.03,37.51-14.42,15.78,17.72,38.21,27.76,60.16,27.76,1.71,0,3.44-.06,5.16-.18,6.76-.47,13.84-1.96,17.61-3.72,16.73-7.78,4.79-19.08,4.79-19.08-7.07,4.53-15.64,7.79-24.82,8.03-11.83.32-20.82-4.95-20.82-4.95l-.28,4.82c-23.74-9.02-40.51-30.42-40.51-30.42-15.38,15.57-30.93,19.24-30.93,19.24v-1.52c-1.81.38-3.47.56-4.9.52-4.25-.12-8.29-2.53-11.93-6.24l-.13-6-4.81.82c5.31-12.3,20.69-47.76,24.87-55.64l74.93-40.07c.26-.14.49-.33.67-.56l38.71-49.47c9.86-12.6,24-20.81,39.82-23.13,21.18-3.11,39.83-5,55.42-5.63,19.28,5.21,50.73,14.71,54.9,15.97l23.79,21.83,14.44,26.03c.33.6.94,1,1.62,1.07l3.19.34c7.64.81,29.09,3.94,37.94,8.83l5.3,8.71c1.66,3.49,27.77,58.56,40.61,93.82,2.26,6.2,5.34,11.55,8.33,16.73,6.17,10.7,10.62,18.42,6.81,29.71Z"/>
    <path class="cls-2" d="M231.71,102.09c-11-.85-21.65,3.2-30.54,8.45-8.75,5.17-4.87,18.59,5.29,18.28.37,3.96,1.13,8.54,2.59,13.25,3.95,12.68,13.72,28.72,37.82,33.12,16.89,3.08,29.08,4.03,37.7,4.03,5.28,0,9.21-.36,12.05-.8,3.13,9.39,19.76,9.39,19.76,9.39.15-.67-4.16-33.27-13.63-55.6-7.26-17.13-30.5-26.98-71.04-30.12ZM248.6,156.01l-.1,2.74c-12.7-2.59-20.75-9.59-24.59-21.38-.12-.37-.23-.73-.34-1.1-1.44-4.91,1-10.14,5.7-12.16,7.43-3.2,15.43-3.37,26.44,3.35-14.62,12.81-7.11,28.56-7.11,28.56Z"/>
    <path class="cls-2" d="M298.83,90.38c-38.26-21.9-70.45-7.37-71.86-6.91.3-.09,50.52,7.95,81.3,32.52l-9.44-25.61Z"/>
    <path class="cls-2" d="M55.28,148.14s-5.07,30.77,21.29,37.77c1.31.52,2.68.82,4.12.85,44.08,6.77,53.4-20.93,52.6-35.48-.8-14.55-78.51-25.29-78.02-3.14Z"/>
    <path class="cls-4" d="M248.6,156.01l-.1,2.74c-12.7-2.59-20.75-9.59-24.59-21.38-.12-.37-.23-.73-.34-1.1-1.44-4.91,1-10.14,5.7-12.16,7.43-3.2,15.43-3.37,26.44,3.35-14.62,12.81-7.11,28.56-7.11,28.56Z"/>
  </g>
</svg>